<?xml version="1.0" ?><!DOCTYPE svg  PUBLIC '-//W3C//DTD SVG 1.1//EN'  'http://www.w3.org/Graphics/SVG/1.1/DTD/svg11.dtd'><svg height="512px" style="enable-background:new 0 0 512 512;" version="1.1" viewBox="0 0 512 512" width="512px" xml:space="preserve" xmlns="http://www.w3.org/2000/svg" xmlns:xlink="http://www.w3.org/1999/xlink"><g id="形状_1_5_" style="enable-background:new    ;"><g id="形状_1"><g><path d="M233.091,352.913h-23.707v2.517     c7.415,0,8.606,1.588,8.606,10.993v16.951c0,9.402-1.191,11.125-8.606,11.125c-5.693-0.794-9.534-3.842-14.832-9.668     l-6.092-6.621c8.211-1.459,12.582-6.623,12.582-12.452c0-7.281-6.224-12.845-17.88-12.845h-23.307v2.517     c7.415,0,8.606,1.588,8.606,10.993v16.951c0,9.402-1.191,11.125-8.606,11.125v2.514h26.354v-2.514     c-7.417,0-8.608-1.723-8.608-11.125v-4.768h2.25l14.701,18.406h38.539c18.939,0,27.149-10.063,27.149-22.115     C260.24,362.847,252.03,352.913,233.091,352.913z M177.601,374.5v-17.611h5.43c5.958,0,8.608,4.104,8.608,8.869     c0,4.638-2.65,8.742-8.608,8.742H177.601z M233.488,392.908h-0.928c-4.767,0-5.429-1.191-5.429-7.283v-28.736     c0,0,5.827,0,6.357,0c13.773,0,16.289,10.063,16.289,17.877C249.777,382.843,247.261,392.908,233.488,392.908z M113.109,339.669     H88.21v2.65c8.477,0,9.668,2.251,7.018,10.063l-9.137,27.02l-13.11-39.732h-2.518l-13.376,39.732l-8.872-27.02     c-2.782-8.209-0.663-10.063,7.151-10.063v-2.65H25.965v2.65c7.682,0,9.801,1.985,12.98,11.653l14.699,45.293h1.722l13.773-41.454     l13.509,41.454h1.72l15.099-45.293c3.312-9.668,5.298-11.653,13.641-11.653V339.669z M131.117,351.19     c-14.567,0-26.487,10.729-26.487,23.707c0,13.112,11.92,23.838,26.487,23.838c14.568,0,26.488-10.726,26.488-23.838     C157.604,361.919,145.685,351.19,131.117,351.19z M131.117,394.499c-12.184,0-16.422-10.859-16.422-19.602     c0-8.608,4.238-19.6,16.422-19.6c12.317,0,16.554,10.991,16.554,19.6C147.671,383.64,143.434,394.499,131.117,394.499z" style="fill-rule:evenodd;clip-rule:evenodd;fill:#1D82AA;"/></g></g></g><g id="形状_1_4_" style="enable-background:new    ;"><g id="形状_1_1_"><g><path d="M290.036,339.669h-27.414v2.65     c8.874,0,10.462,2.117,10.462,15.363v21.188c0,13.244-1.588,15.495-10.462,15.495v2.647h30.327v-2.647     c-8.874,0-10.463-2.251-10.463-15.495v-6.487h7.55c13.641,0,21.189-7.151,21.189-16.289     C311.226,346.689,303.677,339.669,290.036,339.669z M290.036,367.479h-7.55v-23.043h7.55c7.417,0,10.859,5.3,10.859,11.657     C300.896,362.315,297.453,367.479,290.036,367.479z M401.545,386.95c-1.191,4.37-2.65,5.958-12.053,5.958h-1.854     c-6.887,0-8.078-1.588-8.078-10.991v-6.092c10.329,0,11.125,0.926,11.125,7.814h2.517v-19.733h-2.517     c0,6.887-0.796,7.813-11.125,7.813v-14.83h7.283c9.403,0,10.86,1.588,12.051,5.958l0.663,2.514h2.119l-0.926-12.447h-38.938     v2.517c7.418,0,8.608,1.588,8.608,10.993v16.951c0,8.602-1.013,10.768-6.859,11.078c-5.557-0.851-9.373-3.882-14.594-9.621     l-6.092-6.621c8.211-1.459,12.584-6.623,12.584-12.452c0-7.281-6.224-12.845-17.88-12.845h-23.31v2.517     c7.418,0,8.608,1.588,8.608,10.993v16.951c0,9.402-1.19,11.125-8.608,11.125v2.514h26.354v-2.514     c-7.415,0-8.606-1.723-8.606-11.125v-4.768h2.251l14.698,18.406h54.431l0.795-12.447h-1.988L401.545,386.95z M332.019,374.5     v-17.611h5.43c5.959,0,8.608,4.104,8.608,8.869c0,4.638-2.649,8.742-8.608,8.742H332.019z M436.374,372.646l-7.283-3.576     c-6.358-2.916-9.14-4.767-9.14-8.211c0-3.311,3.444-5.43,7.153-5.43c7.019,0,10.461,5.164,11.389,11.39h2.781V351.19h-2.516     c-0.399,1.589-1.06,3.048-1.723,3.578c-2.253-1.855-5.958-3.444-10.328-3.444c-8.214,0-14.172,5.43-14.172,11.788     c0,5.826,3.973,10.194,9.271,12.713l7.549,3.576c5.428,2.516,8.476,5.164,8.476,8.608c0,3.973-3.445,6.355-7.681,6.355     c-7.814,0-13.907-5.164-14.967-13.904h-2.647v18.274h2.517c0.265-1.854,1.456-3.839,2.119-4.502     c1.985,1.722,6.62,4.502,11.919,4.502c8.871,0,16.157-5.827,16.157-14.17C445.248,380.592,442.731,375.691,436.374,372.646z      M477.161,372.646l-7.281-3.576c-6.359-2.916-9.14-4.767-9.14-8.211c0-3.311,3.444-5.43,7.152-5.43     c7.018,0,10.462,5.164,11.388,11.39h2.781V351.19h-2.516c-0.397,1.589-1.06,3.048-1.72,3.578     c-2.254-1.855-5.961-3.444-10.331-3.444c-8.211,0-14.172,5.43-14.172,11.788c0,5.826,3.973,10.194,9.271,12.713l7.55,3.576     c5.429,2.516,8.477,5.164,8.477,8.608c0,3.973-3.444,6.355-7.683,6.355c-7.814,0-13.904-5.164-14.964-13.904h-2.65v18.274h2.519     c0.264-1.854,1.454-3.839,2.117-4.502c1.985,1.722,6.623,4.502,11.921,4.502c8.872,0,16.155-5.827,16.155-14.17     C486.035,380.592,483.519,375.691,477.161,372.646z" style="fill-rule:evenodd;clip-rule:evenodd;fill:#494442;"/></g></g></g><g id="形状_1_3_" style="enable-background:new    ;"><g id="形状_1_2_"><g><path d="M169.983,213.472c0,33.867,19.682,63.136,48.224,77.007     L177.392,178.65C172.646,189.291,169.983,201.067,169.983,213.472z M313.308,209.154c0-10.574-3.8-17.897-7.057-23.597     c-4.336-7.048-8.403-13.018-8.403-20.065c0-7.864,5.966-15.188,14.368-15.188c0.38,0,0.739,0.049,1.109,0.069     c-15.223-13.947-35.503-22.463-57.779-22.463c-29.892,0-56.189,15.338-71.49,38.565c2.01,0.062,3.902,0.104,5.508,0.104     c8.948,0,22.803-1.088,22.803-1.088c4.612-0.271,5.156,6.504,0.548,7.048c0,0-4.637,0.546-9.792,0.816l31.158,92.682     l18.726-56.158l-13.332-36.523c-4.606-0.271-8.973-0.816-8.973-0.816c-4.61-0.27-4.07-7.319,0.542-7.048     c0,0,14.128,1.088,22.536,1.088c8.947,0,22.803-1.088,22.803-1.088c4.615-0.271,5.158,6.504,0.549,7.048     c0,0-4.645,0.546-9.793,0.816l30.921,91.977l8.534-28.517C310.492,224.978,313.308,216.479,313.308,209.154z M257.049,220.957     l-25.673,74.599c7.665,2.253,15.771,3.484,24.17,3.484c9.963,0,19.52-1.722,28.413-4.85c-0.229-0.366-0.438-0.754-0.609-1.178     L257.049,220.957z M330.625,172.423c0.368,2.726,0.575,5.649,0.575,8.799c0,8.68-1.622,18.44-6.505,30.646l-26.136,75.563     c25.438-14.834,42.548-42.395,42.548-73.959C341.107,198.597,337.308,184.608,330.625,172.423z M255.546,113.734     c-54.996,0-99.74,44.743-99.74,99.737c0,55.003,44.744,99.742,99.74,99.742c54.993,0,99.744-44.739,99.744-99.742     C355.29,158.478,310.539,113.734,255.546,113.734z M255.546,308.642c-52.473,0-95.167-42.692-95.167-95.17     c0-52.474,42.693-95.165,95.167-95.165c52.472,0,95.162,42.691,95.162,95.165C350.708,265.949,308.018,308.642,255.546,308.642z" style="fill-rule:evenodd;clip-rule:evenodd;fill:#494442;"/></g></g></g></svg>